<?xml version="1.0" encoding="UTF-8" standalone="no"?>
<!DOCTYPE svg PUBLIC "-//W3C//DTD SVG 20010904//EN" "http://www.w3.org/TR/2001/REC-SVG-20010904/DTD/svg10.dtd">
<svg version="1.0" xmlns="http://www.w3.org/2000/svg" width="2941.000000pt" height="1721.000000pt" viewBox="0 0 2941.000000 1721.000000" preserveAspectRatio="xMidYMid meet">
<metadata>
Created by potrace 1.11, written by Peter Selinger 2001-2013
</metadata>
<g transform="translate(0.000000,1721.000000) scale(0.100000,-0.100000)" fill="#000000" stroke="none">
<path d="M15383 17102 l-82 -3 -144 -167 c-165 -192 -371 -443 -651 -792 l-196 -245 3 -1685 2 -1685 518 1 c285 1 520 4 524 7 3 4 8 644 11 1424 l5 1418 56 70 c31 39 117 150 190 248 l133 177 443 0 444 0 57 -87 c31 -49 108 -173 171 -277 l113 -190 0 -1393 0 -1393 540 0 540 0 0 1620 0 1620 -218 272 c-261 325 -635 801 -747 949 l-80 106 -73 7 c-68 6 -1371 5 -1559 -2z"/>
<path d="M11068 17042 c-123 -98 -337 -303 -683 -653 -409 -413 -520 -536 -528 -581 -14 -76 -29 -919 -24 -1371 l4 -488 39 -62 c57 -92 449 -694 707 -1084 l226 -343 988 0 987 0 378 377 c208 208 378 381 378 384 0 4 -87 85 -192 181 -106 95 -267 242 -357 326 l-164 152 -24 -22 c-13 -12 -72 -78 -131 -147 l-107 -123 -574 7 c-573 6 -574 6 -592 28 -11 12 -73 93 -139 179 l-120 157 0 129 0 129 -257 6 c-141 4 -313 7 -382 7 l-126 0 -163 163 -162 162 0 230 0 229 180 176 179 177 137 6 c76 4 213 7 306 7 127 0 168 3 170 13 0 6 2 47 2 89 l1 78 100 101 c55 56 154 150 220 210 l120 109 445 0 445 0 248 -249 247 -249 0 -111 0 -110 -327 -3 c-181 -2 -697 -4 -1147 -6 -450 -1 -836 -5 -856 -8 -40 -7 -56 -20 -227 -187 l-103 -100 1 -165 0 -164 112 -123 112 -123 1552 -1 1551 -1 90 98 c49 53 139 156 201 227 l111 130 0 515 0 515 -418 420 c-229 231 -504 509 -611 618 l-193 197 -778 0 -779 0 -73 -58z m-298 -2049 l100 -66 0 -108 0 -109 -102 -66 c-57 -37 -107 -67 -113 -67 -5 0 -54 28 -107 62 l-98 63 0 112 0 113 98 66 c53 36 103 66 110 66 7 1 57 -29 112 -66z m2695 -63 c36 -55 65 -104 65 -110 0 -5 -25 -55 -56 -110 l-56 -101 -125 3 -126 3 -59 111 -59 112 67 96 67 96 109 0 109 0 64 -100z"/>
<path d="M1748 17022 l-127 -3 -294 -294 c-471 -470 -926 -951 -983 -1040 -18 -28 -19 -57 -17 -820 2 -434 5 -836 9 -893 6 -102 7 -104 49 -160 54 -72 308 -359 659 -746 149 -165 324 -360 390 -433 l118 -133 1092 0 1092 0 114 138 c272 326 923 1146 930 1171 4 15 11 156 15 314 l7 287 -34 0 c-34 0 -37 -4 -105 -117 l-71 -118 -313 -3 -314 -2 -84 135 c-81 130 -86 136 -115 133 l-31 -3 -5 -155 -5 -155 -95 -124 c-52 -67 -131 -169 -175 -225 -44 -56 -100 -129 -125 -163 l-45 -62 -605 -1 -606 0 -50 53 c-77 79 -243 271 -417 481 l-157 189 -1 491 c0 270 -2 499 -4 509 -2 11 33 62 92 135 166 202 350 415 402 467 l51 50 561 3 562 4 289 -288 c160 -159 303 -307 319 -328 l29 -39 -6 -267 -6 -267 125 -214 124 -214 279 -3 279 -2 96 162 c53 90 111 191 128 225 l31 62 0 489 0 489 -377 374 c-208 207 -450 445 -538 530 -88 85 -214 207 -281 272 l-120 117 -805 -2 c-442 -2 -861 -4 -931 -6z m2720 -2087 l74 -114 -67 -121 -67 -120 -133 0 -134 0 -65 124 c-36 68 -66 129 -66 135 0 7 32 57 70 112 l71 99 122 0 122 0 73 -115z"/>
<path d="M6459 16978 c-335 -269 -1163 -1027 -1300 -1191 l-49 -58 0 -2315 0 -2316 -167 -196 c-93 -108 -247 -288 -344 -398 -98 -111 -183 -212 -190 -225 -9 -19 -12 -217 -10 -929 1 -498 5 -922 10 -942 5 -21 33 -68 62 -105 132 -168 508 -600 1073 -1235 l140 -158 1097 0 1096 0 64 77 c266 325 785 981 967 1224 l102 136 -2 259 -3 259 -41 3 c-40 3 -41 2 -115 -90 l-74 -93 -305 -3 -305 -2 -89 120 -90 120 -46 0 -46 0 -123 -182 c-68 -101 -210 -303 -314 -450 l-191 -268 -497 0 -497 0 -174 193 c-194 215 -458 514 -511 579 l-34 43 -7 160 c-3 88 -7 318 -8 511 l-2 350 183 210 c101 115 236 266 300 337 l116 127 580 0 580 1 318 -322 317 -323 0 -342 0 -341 73 -100 c39 -54 103 -140 142 -191 l70 -92 256 0 256 0 83 118 c46 64 112 156 147 203 l63 86 0 558 0 557 -163 176 c-90 98 -344 373 -564 612 -221 239 -434 471 -475 514 l-74 80 -757 4 -757 5 0 366 0 366 -211 210 c-116 116 -314 320 -441 454 l-231 243 8 297 7 296 42 45 c24 25 77 86 118 135 42 50 110 123 151 164 l75 74 209 -8 c114 -4 230 -4 256 0 l47 7 0 468 0 468 93 84 c178 163 404 350 482 400 l40 26 518 7 517 7 78 -68 c119 -105 245 -229 343 -336 l89 -98 0 -480 0 -481 -136 -180 c-145 -192 -341 -437 -405 -506 l-39 -43 -333 -6 c-182 -4 -417 -3 -520 1 l-188 7 -198 197 c-109 108 -233 233 -275 279 l-78 82 -228 0 -228 0 -146 -145 -146 -146 0 -250 0 -249 93 -102 c50 -57 218 -230 372 -386 l280 -283 685 3 c377 1 893 4 1147 6 l462 3 173 212 c339 416 461 573 628 807 l170 237 0 956 0 955 -247 229 c-136 125 -372 343 -523 483 -152 140 -335 308 -407 373 l-131 117 -839 0 -839 0 -65 -52z m-271 -3099 l73 -111 -64 -117 -65 -116 -138 -3 -139 -2 -67 127 -66 128 71 102 72 103 125 0 125 0 73 -111z m2476 -4494 c37 -52 69 -101 72 -109 3 -8 -23 -62 -58 -120 l-63 -105 -136 -1 -137 0 -58 103 c-31 56 -62 109 -67 118 -11 18 4 41 101 157 l44 52 117 0 118 0 67 -95z"/>
<path d="M1636 11813 l-449 -3 -286 -277 c-157 -153 -382 -372 -498 -487 l-213 -210 0 -316 0 -317 81 -108 c80 -106 312 -404 699 -897 l194 -248 445 1 c245 1 516 4 602 8 l157 6 -196 280 c-107 154 -283 406 -390 560 -108 154 -265 378 -349 498 l-154 218 178 187 c97 103 178 189 179 191 2 1 245 0 541 -4 l539 -8 34 -51 c19 -28 81 -125 138 -216 57 -91 109 -168 115 -172 15 -9 706 -10 919 -1 l157 6 -41 81 c-61 122 -278 529 -435 816 -77 140 -164 301 -194 357 l-54 102 -70 4 c-76 4 -931 4 -1649 0z"/>
<path d="M9460 9907 l0 -1874 111 -138 c171 -214 351 -418 658 -748 l165 -177 925 2 924 3 126 135 c264 283 568 632 815 934 l138 169 -6 1706 c-4 938 -9 1740 -12 1782 l-6 75 -486 -2 c-268 0 -508 -2 -534 -3 l-48 -1 0 -1543 0 -1544 -78 -94 c-43 -52 -145 -168 -227 -259 l-149 -165 -236 -6 c-129 -4 -326 -7 -437 -8 l-201 -1 -87 97 c-114 127 -194 228 -256 319 l-49 73 -7 1571 -6 1570 -519 0 -518 0 0 -1873z"/>
<path d="M14864 11698 c-139 -142 -334 -357 -746 -821 l-398 -448 2 -402 3 -402 66 -3 65 -3 106 108 107 107 253 4 254 4 81 -108 c139 -186 129 -177 196 -169 l57 7 1 82 c1 44 0 93 -1 108 -1 21 46 86 226 310 125 156 281 347 347 426 l120 142 613 0 614 0 0 570 0 570 -943 0 -942 0 -81 -82z"/>
<path d="M18159 11568 c-217 -228 -337 -356 -722 -775 l-287 -312 0 -493 0 -493 76 -105 c42 -58 112 -158 156 -222 l81 -118 243 0 243 0 41 55 c22 30 90 131 150 223 l110 169 0 306 0 306 97 103 c53 57 177 194 276 306 l179 202 552 0 552 0 50 -52 c28 -29 143 -156 255 -282 112 -126 220 -248 240 -270 l36 -40 54 44 c249 205 749 638 749 649 0 13 -511 610 -739 864 l-115 127 -1047 0 -1047 0 -183 -192z m-256 -1941 l74 -103 -65 -107 -65 -107 -138 0 -137 0 -67 115 -67 116 72 94 73 95 123 0 123 0 74 -103z"/>
<path d="M22775 11693 c-116 -84 -305 -262 -726 -683 -245 -245 -471 -476 -504 -513 -55 -64 -58 -71 -67 -140 -4 -40 -11 -472 -14 -962 l-6 -890 126 -195 c70 -107 296 -450 504 -762 l377 -568 1023 0 1024 0 394 388 395 387 -28 24 c-53 46 -479 429 -598 539 l-120 110 -30 -29 c-16 -16 -75 -80 -130 -143 -79 -90 -107 -115 -133 -121 -18 -3 -288 -3 -599 1 l-566 7 -26 30 c-14 17 -76 96 -137 175 -125 162 -124 159 -124 333 l0 99 -248 0 c-137 0 -317 3 -401 7 l-151 6 -165 165 -165 166 0 224 0 224 37 44 c20 25 107 112 194 194 l157 149 288 1 c158 0 298 3 311 6 22 6 23 10 23 93 l0 88 118 115 c141 139 290 276 317 293 15 10 132 14 480 18 l460 4 258 -255 257 -256 0 -111 0 -112 -517 -6 c-285 -4 -819 -7 -1188 -7 -368 -1 -689 -5 -712 -9 -35 -7 -63 -29 -187 -147 l-146 -139 1 -175 0 -175 119 -122 119 -122 1597 -2 1597 -1 49 49 c28 26 124 133 215 237 l165 189 -7 526 -7 526 -632 632 -631 633 -795 0 -795 0 -50 -37z m-350 -2123 l105 -70 0 -113 -1 -112 -102 -65 c-56 -36 -109 -65 -117 -65 -8 0 -59 27 -112 60 l-98 60 0 117 0 118 103 69 c56 38 106 70 110 70 4 1 55 -31 112 -69z m2796 -74 l67 -104 -61 -111 -62 -111 -126 0 -127 0 -61 115 c-34 63 -61 119 -61 123 0 5 29 50 65 100 l66 92 117 -1 117 0 66 -103z"/>
<path d="M2002 9923 l-52 -4 337 -502 c186 -276 423 -629 527 -784 l189 -282 -166 -184 -166 -185 -53 -7 c-29 -4 -248 -5 -488 -1 l-435 7 -139 142 c-76 78 -204 215 -284 305 l-145 162 -466 -2 -466 -3 -3 -243 -2 -243 97 -137 c134 -188 356 -477 607 -789 l210 -263 1035 0 1036 0 315 377 c173 207 399 477 503 600 l187 224 0 248 0 247 -98 145 c-54 79 -194 286 -311 459 -269 397 -406 589 -471 663 l-52 57 -596 -2 c-328 -1 -621 -3 -650 -5z m1027 -304 l73 -101 -63 -94 -64 -93 -140 0 -140 0 -62 98 c-35 54 -63 101 -63 105 0 4 34 48 76 97 l77 89 116 0 117 0 73 -101z"/>
<path d="M14033 9583 c-33 -38 -115 -138 -184 -223 l-124 -154 -6 -926 c-9 -1320 -10 -4584 -2 -5652 l6 -908 582 0 583 0 6 413 c3 226 8 1895 11 3707 l5 3296 -156 214 c-87 118 -173 234 -192 258 l-34 42 -218 0 -218 0 -59 -67z m418 -226 c8 -12 41 -58 72 -103 l56 -80 -62 -105 -63 -104 -140 -3 -139 -3 -67 116 -66 115 50 67 c97 130 84 123 222 123 113 -1 122 -2 137 -23z"/>
<path d="M17148 9131 c-2 -17 -5 -201 -6 -410 l-2 -381 77 -87 c43 -49 170 -192 283 -319 113 -126 346 -392 519 -591 l315 -360 687 -6 c379 -4 864 -4 1079 0 l392 6 178 191 c98 105 225 245 283 311 l106 120 -352 353 c-194 194 -373 371 -399 393 l-47 40 -142 -140 -143 -140 -536 -7 -535 -7 -230 234 c-126 129 -274 282 -328 341 l-98 106 2 174 1 173 -37 3 c-20 2 -43 -2 -50 -8 -8 -6 -42 -56 -76 -111 l-62 -99 -312 0 -313 0 -88 125 c-86 121 -90 125 -125 125 -33 0 -37 -3 -41 -29z"/>
<path d="M5899 6188 c-153 -160 -537 -574 -902 -971 l-117 -128 0 -492 0 -493 66 -89 c37 -50 107 -150 157 -223 l91 -132 245 2 246 3 55 77 c30 43 97 142 147 221 l93 143 0 304 1 305 42 46 c106 116 321 356 411 457 l99 112 552 0 553 0 94 -102 c84 -92 373 -414 454 -507 l32 -36 78 64 c90 73 590 503 674 579 l55 49 -60 73 c-104 127 -492 578 -648 753 l-149 167 -1048 0 -1047 0 -174 -182z m-301 -1900 c21 -29 54 -76 74 -103 l36 -50 -65 -108 -64 -107 -138 0 -138 0 -67 115 -67 115 73 95 72 95 123 0 122 0 39 -52z"/>
<path d="M16303 6108 c-454 -481 -851 -922 -981 -1090 l-42 -54 -6 -370 c-4 -203 -3 -624 1 -936 l7 -566 84 -109 c93 -119 363 -442 690 -824 115 -135 253 -298 305 -362 l94 -116 1057 0 1057 -1 109 138 c59 75 294 384 520 685 l412 549 0 299 c0 192 -4 299 -10 300 -5 1 -16 2 -22 3 -29 5 -49 -19 -109 -129 l-63 -115 -307 0 -306 0 -83 141 c-76 128 -85 140 -109 137 l-26 -3 -5 -161 -5 -162 -35 -48 c-19 -27 -107 -148 -195 -269 -88 -121 -171 -235 -184 -252 l-22 -33 -584 0 -583 0 -19 24 c-10 12 -72 88 -138 166 -66 79 -192 236 -281 348 l-161 205 -6 231 c-4 127 -7 365 -7 529 l0 299 82 106 c122 159 351 443 400 495 l43 47 545 6 545 7 236 -249 c130 -137 268 -285 307 -328 l72 -79 0 -291 1 -291 118 -215 118 -215 270 -3 271 -2 81 144 c44 80 101 185 124 234 l44 89 -2 500 -1 501 -178 193 c-98 107 -233 250 -300 319 -298 309 -453 468 -620 638 l-180 182 -897 0 -897 0 -229 -242z m2925 -1825 c10 -16 43 -68 72 -117 l54 -89 -63 -123 -64 -124 -131 0 -131 0 -67 133 -66 133 70 107 70 107 118 0 c118 0 119 0 138 -27z"/>
<path d="M1520 6276 c-180 -136 -577 -503 -1001 -926 -272 -271 -297 -298 -302 -335 -14 -99 -29 -888 -25 -1370 l3 -530 149 -220 c166 -245 623 -905 792 -1145 l109 -155 1061 -3 1061 -2 294 277 c405 382 529 500 529 506 0 3 -69 64 -152 135 -84 71 -254 218 -378 326 -124 109 -231 200 -237 203 -7 3 -18 -1 -25 -9 -7 -7 -69 -73 -138 -147 l-125 -134 -617 5 -616 6 -30 33 c-16 19 -80 97 -143 174 -127 158 -127 157 -128 338 l-1 97 -374 0 c-205 0 -394 3 -419 6 -43 6 -57 17 -217 171 l-171 165 1 227 1 226 92 90 c51 50 141 134 200 188 l108 97 87 1 c48 1 195 4 327 8 l240 6 5 95 5 95 70 66 c110 103 209 192 305 274 l88 75 482 0 481 0 122 -112 c67 -62 188 -178 270 -257 l147 -144 0 -107 0 -107 -228 -6 c-125 -4 -518 -4 -873 -1 -377 4 -811 2 -1047 -5 l-403 -10 -48 -43 c-26 -24 -98 -88 -159 -143 l-112 -100 0 -175 0 -175 125 -125 125 -125 1663 -3 1662 -3 101 103 c56 57 156 164 223 238 l121 135 -2 526 -3 527 -115 108 c-63 60 -171 163 -240 229 -69 66 -240 230 -380 365 -140 134 -327 315 -415 402 l-161 158 -839 0 -840 0 -85 -64z m-310 -2098 l95 -63 3 -110 3 -110 -116 -72 -116 -71 -110 65 -109 66 0 117 0 118 111 71 c84 53 116 68 128 61 9 -5 59 -37 111 -72z m2900 -60 c38 -56 70 -105 70 -109 0 -4 -27 -55 -61 -113 l-61 -106 -133 0 -134 0 -49 88 c-27 48 -56 101 -65 118 l-16 31 71 97 71 96 118 0 118 0 71 -102z"/>
<path d="M10595 6323 l-270 -3 -93 -93 c-257 -253 -1004 -1076 -1134 -1249 l-35 -47 -6 -238 c-4 -131 -3 -549 1 -929 l7 -691 60 -79 c84 -110 307 -378 670 -804 171 -201 341 -402 379 -447 l68 -83 1058 0 1058 0 44 53 c70 83 218 277 611 798 l365 486 8 317 7 317 -33 -3 c-30 -3 -37 -11 -102 -125 l-69 -123 -303 0 -303 0 -80 138 c-74 125 -83 137 -112 140 l-31 3 0 -68 c0 -37 -3 -112 -7 -167 l-6 -99 -212 -291 -212 -291 -589 -2 -589 -3 -87 103 c-99 117 -245 298 -406 505 l-112 143 0 524 0 524 154 198 c85 109 202 255 261 326 l106 127 549 0 549 0 249 -262 c137 -145 275 -292 306 -328 l58 -65 -3 -285 -4 -285 121 -220 120 -220 269 0 270 0 63 110 c34 61 89 163 122 227 l60 118 0 508 0 509 -167 179 c-165 178 -523 550 -907 944 l-200 205 -625 1 c-345 0 -747 -1 -896 -3z m2474 -2153 l73 -120 -64 -122 -64 -123 -130 -3 -129 -3 -68 136 -67 136 61 92 c92 138 75 127 204 127 l112 0 72 -120z"/>
<path d="M21240 6083 c-41 -36 -174 -147 -295 -246 -286 -236 -507 -422 -731 -616 l-181 -156 -8 -625 c-4 -344 -5 -793 -2 -998 l6 -373 128 -187 c284 -418 513 -737 719 -1002 l129 -165 1140 -3 1140 -2 241 242 c133 134 320 327 417 429 l176 185 6 230 7 229 -120 131 -120 131 -93 6 c-51 4 -143 7 -205 7 l-113 0 -80 -72 c-43 -40 -148 -138 -233 -218 -84 -80 -189 -174 -232 -209 l-78 -64 -527 2 c-289 1 -578 5 -641 9 l-114 7 -134 165 c-73 91 -185 242 -248 336 l-114 171 0 569 1 569 267 267 267 268 593 0 593 0 102 -87 c180 -154 289 -253 430 -392 l137 -136 0 -496 0 -497 251 -4 252 -4 103 -109 c58 -61 133 -142 168 -180 l64 -70 8 -312 7 -312 -194 -203 c-268 -280 -293 -307 -496 -531 l-180 -198 -7 -101 c-3 -56 -3 -298 0 -537 l7 -436 133 -150 c73 -82 163 -182 201 -222 l68 -72 197 -3 197 -3 67 90 c38 50 112 155 166 234 l98 145 0 2193 0 2193 -27 29 c-93 97 -1028 914 -1316 1149 l-88 72 -917 0 -917 -1 -75 -66z m2564 -3004 c19 -21 137 -211 134 -217 -2 -4 -30 -56 -63 -115 l-60 -107 -133 2 -133 3 -64 121 -64 120 56 80 c95 135 80 127 211 122 62 -3 114 -7 116 -9z m414 -2376 l72 -106 -66 -113 -66 -114 -138 0 -138 0 -66 119 c-36 65 -66 122 -66 126 0 4 32 49 71 101 l70 94 127 -1 127 0 73 -106z"/>
<path d="M25618 5742 c-197 -191 -427 -421 -513 -511 l-155 -164 0 -1012 0 -1011 97 -135 c87 -120 582 -780 774 -1031 l74 -98 1119 0 1119 0 155 148 c85 81 260 253 389 382 l233 235 0 223 0 223 -87 98 c-49 53 -100 111 -116 129 l-27 32 -288 0 -287 0 -160 -151 c-88 -83 -209 -193 -269 -245 l-109 -94 -512 0 -512 0 -169 203 c-93 111 -220 267 -283 347 l-113 145 1 1025 c1 564 4 1157 8 1318 3 172 2 292 -3 292 -5 0 -170 -156 -366 -348z m2981 -2821 l72 -109 -63 -113 -64 -114 -130 -3 -131 -3 -67 126 -67 125 71 100 71 100 118 0 118 0 72 -109z"/>
<path d="M28150 5329 c0 -399 -3 -990 -7 -1312 l-6 -587 284 0 284 0 173 -173 172 -172 0 -307 0 -306 -307 -299 c-170 -165 -366 -354 -437 -421 l-129 -122 -263 0 -263 0 -118 -147 c-155 -194 -636 -788 -830 -1026 -171 -208 -163 -187 -112 -289 l29 -58 648 0 649 0 144 158 c314 341 869 954 1137 1256 l132 148 0 1607 0 1607 -92 89 c-51 49 -317 312 -590 584 l-498 496 0 -726z"/>
<path d="M4880 3355 l0 -416 273 -307 c257 -289 671 -761 837 -955 l75 -87 475 -2 c261 -2 745 -1 1075 1 l600 3 33 32 c44 41 321 341 445 481 l97 110 -392 392 c-216 216 -396 393 -399 393 -3 0 -69 -63 -145 -140 l-140 -139 -539 -7 -540 -7 -237 242 c-131 134 -277 286 -325 338 l-88 96 0 176 0 176 -43 3 -42 3 -72 -110 -72 -111 -312 0 -313 0 -87 125 c-86 123 -89 125 -126 125 l-38 0 0 -415z"/>
<path d="M21023 1043 l-151 -4 -163 -242 c-89 -133 -209 -310 -265 -392 l-102 -151 78 -103 78 -103 1546 -3 c850 -1 1546 0 1546 4 0 3 -27 38 -61 76 -33 39 -93 113 -132 165 -39 52 -86 113 -104 134 l-33 40 0 286 0 287 -122 6 c-120 6 -1810 6 -2115 0z"/>
</g>
</svg>